<?xml version="1.0" standalone="no"?><!DOCTYPE svg PUBLIC "-//W3C//DTD SVG 1.1//EN" "http://www.w3.org/Graphics/SVG/1.1/DTD/svg11.dtd"><svg width="200" height="200" viewBox="0 0 200 200" version="1.1" xmlns="http://www.w3.org/2000/svg" xmlns:xlink="http://www.w3.org/1999/xlink"><defs><style type="text/css"><![CDATA[
@font-face { font-family: ifont; src: url("http://at.alicdn.com/t/font_1442373896_4754455.eot?#iefix") format("embedded-opentype"), url("http://at.alicdn.com/t/font_1442373896_4754455.woff") format("woff"), url("http://at.alicdn.com/t/font_1442373896_4754455.ttf") format("truetype"), url("http://at.alicdn.com/t/font_1442373896_4754455.svg#ifont") format("svg"); }

]]></style></defs><g class="transform-group"><g transform="scale(0.1953125, 0.1953125)"><path d="M919.232 241.344l-239.488 0c-4.672-87.232-73.728-149.248-158.464-149.248S367.552 154.048 362.88 241.344L104.768 241.344C82.24 241.344 64 259.52 64 281.92l0 609.344c0 22.464 18.24 40.64 40.768 40.64l814.528 0c22.528 0 40.768-18.176 40.768-40.64L960.064 539.84 960.064 465.6l0-183.68C960 259.52 941.76 241.344 919.232 241.344L919.232 241.344zM516.928 156.928c54.912 0 88.96 29.312 92.16 84.352L424.896 241.28C428.032 186.24 462.08 156.928 516.928 156.928L516.928 156.928zM885.312 857.984 140.032 857.984 140.032 539.84 398.08 539.84l0 62.976L398.016 602.816l0 53.248 250.048 0L648.064 602.752l-0.064 0L648 539.84l237.312 0L885.312 857.984 885.312 857.984zM456.192 604.8 456.192 539.84l130.176 0L586.368 604.8 456.192 604.8 456.192 604.8zM884.032 456 144 456 144 308.032l740.032 0L884.032 456 884.032 456zM903.872 465.6" fill="#424242"></path></g></g></svg>