<?xml version="1.0" standalone="no"?><!DOCTYPE svg PUBLIC "-//W3C//DTD SVG 1.1//EN" "http://www.w3.org/Graphics/SVG/1.1/DTD/svg11.dtd"> <svg width="200" height="200" viewBox="0 0 218.359375 200" version="1.1" xmlns="http://www.w3.org/2000/svg" xmlns:xlink="http://www.w3.org/1999/xlink"> <defs> <style type="text/css"> <![CDATA[ @font-face {
	font-family: ifont;
	src: url("http://at.alicdn.com/t/font_1442373896_4754455.eot?#iefix") format("embedded-opentype"), url("http://at.alicdn.com/t/font_1442373896_4754455.woff") format("woff"), url("http://at.alicdn.com/t/font_1442373896_4754455.ttf") format("truetype"), url("http://at.alicdn.com/t/font_1442373896_4754455.svg#ifont") format("svg");
}

]]> </style> </defs> <g class="transform-group"> <g transform="scale(0.1953125, 0.1953125)"> <path d="M1117.242869 377.529537C1117.242869 169.359605 902.521129 0 638.594 0c-139.216378 0-270.900358 47.669724-362.122423 130.921603 43.109098-9.370831 87.715674-14.974782 132.668661-16.663196 67.998877-35.097998 147.335219-53.647362 229.452398-53.647362 227.498039 0 412.587985 142.173147 412.587985 316.918492 0 36.673215-8.098384 72.627694-24.064666 106.867848 8.710741 32.390809 12.961779 65.867221 12.626278 99.405005C1090.46283 522.467155 1117.242869 451.218286 1117.242869 377.529537L1117.242869 377.529537 1117.242869 377.529537zM1117.242869 377.529537M478.665234 489.969968c-37.100091 0-67.280142 27.755173-67.280142 61.867127 0 34.117409 30.180051 61.867127 67.280142 61.867127 37.120549 0 67.322421-27.751081 67.322421-61.867127C545.987655 517.72514 515.785783 489.969968 478.665234 489.969968L478.665234 489.969968 478.665234 489.969968zM478.665234 489.969968M238.722306 489.969968c-37.100091 0-67.285597 27.755173-67.285597 61.867127 0 34.117409 30.185506 61.867127 67.285597 61.867127 37.121913 0 67.316965-27.751081 67.316965-61.867127C306.039272 517.72514 275.844219 489.969968 238.722306 489.969968L238.722306 489.969968zM238.722306 489.969968M718.62862 489.969968c-37.121913 0-67.316965 27.755173-67.316965 61.867127 0 34.117409 30.196417 61.867127 67.316965 61.867127 37.100091 0 67.285597-27.751081 67.285597-61.867127C785.914218 517.72514 755.728711 489.969968 718.62862 489.969968L718.62862 489.969968zM718.62862 489.969968M478.632503 174.314376C214.717648 174.314376 0 343.672618 0 551.837094c0 206.677909 199.459191 340.173047 381.940142 369.484342l69.837311 90.012353c13.046336 16.952326 40.696494 16.824127 53.779653 0l69.805943-90.049176c182.497318-29.304476 381.923776-162.747789 381.923776-369.447519C957.281371 343.672618 742.565087 174.314376 478.632503 174.314376L478.632503 174.314376 478.632503 174.314376zM551.565693 863.444857c-8.806209 1.175616-16.813216 5.689872-21.976652 12.379426l-50.956538 65.650373-50.934717-65.612186c-5.157981-6.674552-13.175899-11.187444-21.991654-12.386245-196.801099-27.052803-339.641156-158.117608-339.641156-311.633676 0-174.7508 185.076308-316.918492 412.567527-316.918492 227.503494 0 412.587985 142.167692 412.587985 316.918492C891.221851 705.373619 748.376339 836.423422 551.565693 863.444857L551.565693 863.444857 551.565693 863.444857zM551.565693 863.444857" fill="#424242"></path> </g> </g> </svg>