<?xml version="1.0" standalone="no"?><!DOCTYPE svg PUBLIC "-//W3C//DTD SVG 1.1//EN" "http://www.w3.org/Graphics/SVG/1.1/DTD/svg11.dtd"><svg width="200" height="200" viewBox="0 0 200 200" version="1.1" xmlns="http://www.w3.org/2000/svg" xmlns:xlink="http://www.w3.org/1999/xlink"><defs><style type="text/css"><![CDATA[
@font-face { font-family: ifont; src: url("http://at.alicdn.com/t/font_1442373896_4754455.eot?#iefix") format("embedded-opentype"), url("http://at.alicdn.com/t/font_1442373896_4754455.woff") format("woff"), url("http://at.alicdn.com/t/font_1442373896_4754455.ttf") format("truetype"), url("http://at.alicdn.com/t/font_1442373896_4754455.svg#ifont") format("svg"); }

]]></style></defs><g class="transform-group"><g transform="scale(0.1953125, 0.1953125)"><path d="M855.831 148.248c0.073 0.039 0.144 0.087 0.216 0.127C858.379 149.556 855.831 148.248 855.831 148.248zM856.047 148.375c-0.561-0.284-1.401-0.711-2.63-1.336-102.483-52.447-218.557-82.044-341.572-82.044-121.908 0-237.078 29.095-338.853 80.633-7.246 3.726-5.033 2.62-5.033 2.62-9.157 4.832-16.609 17.214-16.609 27.581l0 3.023 0 47.715 0.098 438.314c0 51.848 36.443 114.865 81.342 140.838l262.747 151.607c8.961 5.132 23.554 5.132 32.515 0l263.047-151.81c44.898-25.869 81.342-88.989 81.342-140.837L872.441 300.662l0-0.909 0-73.286 0-50.034C872.44 165.55 865.109 153.287 856.047 148.375zM808.013 301.469l0 0.905 0 359.183c0 32.919-23.153 72.985-51.642 89.398l-244.427 141.137L267.32 750.851c-28.489-16.408-51.642-56.474-51.642-89.393L215.678 195.364c89.594-42.987 190.062-67.151 296.167-67.151 106.106 0 206.471 24.061 296.168 67.151L808.013 301.469zM704.863 312.645l-0.004-0.112 0.005-0.236c0.005-0.19 0.01-0.38 0.01-0.571 0-69.102-84.117-123.231-191.5-123.231s-191.5 54.129-191.5 123.23c0 0.2 0.005 0.399 0.011 0.598l0.005 0.208-0.003 0.078c-0.007 0.19-0.013 0.381-0.013 0.573l0 109.695 0.007 0.39c-0.004 0.103-0.007 0.206-0.007 0.31l0 109.695 0.007 0.389c-0.004 0.104-0.007 0.206-0.007 0.31l0 109.695c0 69.101 84.117 123.229 191.5 123.229s191.5-54.129 191.5-123.229L704.874 533.972c0-0.095-0.002-0.188-0.007-0.323l0.007-110.07c0-0.095-0.002-0.189-0.007-0.324l0.007-110.071C704.874 313.003 704.869 312.824 704.863 312.645zM611.307 355.792c-26.04 14.294-60.82 22.166-97.933 22.166s-71.893-7.872-97.933-22.166c-22.897-12.568-36.567-29.041-36.567-44.065s13.67-31.498 36.567-44.066c26.04-14.293 60.82-22.165 97.933-22.165s71.893 7.872 97.933 22.165c22.897 12.568 36.567 29.042 36.567 44.066S634.204 343.224 611.307 355.792zM647.874 401.771l0 241.896c0 15.024-13.67 31.497-36.567 44.064-26.04 14.294-60.819 22.165-97.933 22.165-37.112 0-71.893-7.872-97.933-22.165-22.897-12.568-36.567-29.041-36.567-44.064L378.874 401.771c35.569 22.385 82.981 34.644 134.5 34.644S612.305 424.155 647.874 401.771z" fill="#424242"></path></g></g></svg>