<?xml version="1.0" standalone="no"?><!DOCTYPE svg PUBLIC "-//W3C//DTD SVG 1.1//EN" "http://www.w3.org/Graphics/SVG/1.1/DTD/svg11.dtd"><svg width="200.1953125" height="200" viewBox="0 0 200.1953125 200" version="1.1" xmlns="http://www.w3.org/2000/svg" xmlns:xlink="http://www.w3.org/1999/xlink"><defs><style type="text/css"><![CDATA[
@font-face { font-family: ifont; src: url("http://at.alicdn.com/t/font_1442373896_4754455.eot?#iefix") format("embedded-opentype"), url("http://at.alicdn.com/t/font_1442373896_4754455.woff") format("woff"), url("http://at.alicdn.com/t/font_1442373896_4754455.ttf") format("truetype"), url("http://at.alicdn.com/t/font_1442373896_4754455.svg#ifont") format("svg"); }

]]></style></defs><g class="transform-group"><g transform="scale(0.1953125, 0.1953125)"><path d="M1011.708901 321.636034 730.212929 39.544062c-12.473999-12.499999-32.720997-12.521999-45.221996-0.053-12.502999 12.470999-12.525999 32.713997-0.053 45.212996l245.206976 245.725976L492.221952 447.746022 197.488981 153.07805 532.734948 62.850059c17.052998-4.59 27.156997-22.131998 22.565998-39.181996-4.591-17.049998-22.135998-27.150997-39.190996-22.560998L131.240987 104.691055c-12.326999 1.743-23.023998 10.640999-26.433997 23.425998L1.088 516.930015c-4.551 17.059998 5.592999 34.579997 22.656998 39.128996 2.761 0.737 5.531999 1.088 8.260999 1.088 14.132999 0 27.062997-9.439999 30.876997-23.739998l89.391991-335.105967 295.080971 295.014971L330.277968 930.164975 84.497992 685.012999c-12.501999-12.470999-32.749997-12.448999-45.222996 0.053-12.473999 12.498999-12.449999 32.741997 0.053 45.212996l282.238972 281.519973c6.003999 7.613999 15.254999 12.200999 25.096998 12.200999 2.751 0 5.548999-0.358 8.332999-1.107l388.655962-104.60199c17.053998-4.591 27.156997-22.132998 22.565998-39.182996-4.591-17.049998-22.136998-27.149997-39.190996-22.559998l-334.969967 90.152991 117.205989-437.322957 437.420957-117.180989-90.172991 334.895967c-4.591 17.049998 5.511999 34.591997 22.564998 39.182996 2.784 0.749 5.579999 1.106 8.331999 1.106 14.103999 0 27.016997-9.401999 30.858997-23.667998l104.62499-388.570962C1026.3339 342.364032 1021.5189 329.307033 1011.708901 321.636034z" fill="#424242"></path></g></g></svg>