<?xml version="1.0" encoding="utf-8"?>
<!-- Generator: Adobe Illustrator 18.0.0, SVG Export Plug-In . SVG Version: 6.00 Build 0)  -->
<!DOCTYPE svg PUBLIC "-//W3C//DTD SVG 1.1//EN" "http://www.w3.org/Graphics/SVG/1.1/DTD/svg11.dtd">
<svg version="1.1" id="图层_1" xmlns="http://www.w3.org/2000/svg" xmlns:xlink="http://www.w3.org/1999/xlink" x="0px" y="0px"
	 viewBox="0 0 538.6 411" enable-background="new 0 0 538.6 411" width="190" height="145" xml:space="preserve">
<g>
	<g>
		<g>
			<g>
				<polygon fill="#0C73B9" points="173.1,275.1 173.1,305.2 206.5,305.2 				"/>
				<polygon fill="#0C73B9" points="341.9,275.1 341.9,305 308.6,305 				"/>
				<polygon fill="#0C73B9" points="152.4,106.8 152.4,74 181.9,74 				"/>
				<polygon fill="#0C73B9" points="366.3,72.3 394.3,72.3 394.3,103 				"/>
			</g>
		</g>
		<g>
			<g>
				<polygon fill="#0C73B9" points="173.1,275.1 173.1,305.2 206.5,305.2 				"/>
				<polygon fill="#0C73B9" points="341.9,275.1 341.9,305 308.6,305 				"/>
				<polygon fill="#0C73B9" points="152.4,106.8 152.4,74 181.9,74 				"/>
				<polygon fill="#0C73B9" points="366.3,72.3 394.3,72.3 394.3,103 				"/>
			</g>
		</g>
	</g>
	<path fill="#E0A84F" d="M5.5,147.1c0,0-6.8,30.4,2.5,51.9c9.8,21.8,17.9,27.6,26.9,35.8c14.5,11.4,35.3,20.1,53.5,23.1
		c28.7,6.4,69.3,7.4,79.2,7.4c38.7,0.8,59.6-2.1,82.6-5.4s45.9-7.7,45.9-8c-98.9,10.5-104.2,6.8-118.1,6.8
		c-13.4-0.7-35.1-3.3-37.7-3.5c-15.6-2.2-42.8-7.9-53-11.4C43.7,230.1,7.6,192.1,5.5,147.1z"/>
	<path fill="#0C73B9" d="M184.3,133.5c0,0,190.4-6,260.2,8c85.8,12,87.8,47,87.8,47s11.3-24.9-5.6-41.4
		c-14.9-17-68.6-23.3-69.5-23.9c-48.3-7-85.9-3.9-100.9-4.4C277.8,120.8,184.3,133.5,184.3,133.5z"/>
	<path fill="#0C73B9" d="M102.9,280.4c0,0,26.9,5.1,42.2,5.8c10.5,21.5,47.6,70.5,105.8,85.3c50-12.4,92.6-53,92.6-53
		s22.6-22.4,32.8-39.5c1.8-3.1,10.3-18.6,15.7-30.8c18.5,0.6,30,9.6,30,9.6c1.7-0.4-22.5,50.8-65.1,87
		c-53.1,47.5-112.5,59.9-112.5,59.9s-47.2-10-91.3-50.6C117.1,324.8,102.9,280.4,102.9,280.4z"/>
	<path fill="#0C73B9" d="M412.4,103.9l31.4,1.5c0,0,5.1-45.1,5.1-59.4c-9.4-5-35-17.4-73-26.8C327.6,6.1,265.6,0.7,189.7,16.1
		c-29.3,5.1-58.4,14-85.7,28c-1.4,16.5-6.3,76-6.3,77.6c0,2.5,31.7,16.1,33.3,15c0-2.8,2.9-66,3.3-70.5c-0.1-0.5,0.1-1.1,0.6-1.5
		c82.6-36,236.7-25.9,280,1.9C414.2,76.5,412.1,107.8,412.4,103.9z"/>
	<path fill="#0C73B9" d="M101.8,71.7c-11.3,1.7-52.7,7.2-73.1,37.5c-8.9,14.8-10.2,29.3-8.1,41.7c3,24.4,17.8,37.6,17.8,37.6
		c28.4,34.3,90.9,43.5,93,44.8c86.3,14.9,161.2,0.9,165.4,0c93.5-10.6,121.9,3.3,125.3,3.8c17.7,6.4,16.5,11.3,17.4,13.2
		c1.3,7-3.5,14.1-4.3,16.3c-2.1,5.6-32,29.8-32,29.8s66.1-22.8,98.2-57.8c16.8-17,16.3-33.2,16.3-33.2s2.5-16.8-17.4-29.7
		c-15-12.5-51-17.5-69-18c-13.7-1.6-35.3-1.9-35.3-1.9c-51.8-1.7-72-0.7-99.5-0.4c0,0-63.9,2.5-79.3,3.5
		C159,160.6,102.5,144.3,99.5,143c0,0-31.3-10.8-30.8-30.1C68.3,95.2,101,80.6,101,80.6S101.6,74.4,101.8,71.7z"/>
</g>
</svg>
