<?xml version="1.0" standalone="no"?><!DOCTYPE svg PUBLIC "-//W3C//DTD SVG 1.1//EN" "http://www.w3.org/Graphics/SVG/1.1/DTD/svg11.dtd"><svg width="200" height="200" viewBox="0 0 200 200" version="1.1" xmlns="http://www.w3.org/2000/svg" xmlns:xlink="http://www.w3.org/1999/xlink"><defs><style type="text/css"><![CDATA[
@font-face { font-family: ifont; src: url("http://at.alicdn.com/t/font_1442373896_4754455.eot?#iefix") format("embedded-opentype"), url("http://at.alicdn.com/t/font_1442373896_4754455.woff") format("woff"), url("http://at.alicdn.com/t/font_1442373896_4754455.ttf") format("truetype"), url("http://at.alicdn.com/t/font_1442373896_4754455.svg#ifont") format("svg"); }

]]></style></defs><g class="transform-group"><g transform="scale(0.1953125, 0.1953125)"><path d="M870.2976 751.3088l-130.048 119.8592c0 0-32.0512-30.0544-121.344-119.8592-137.3184-153.9584-105.5744-246.5792-105.5744-246.5792l20.1216-221.5424 206.848-77.568 215.5008 77.568c0 0 4.3008 87.6032 15.104 221.5424C981.6576 638.6688 870.2976 751.3088 870.2976 751.3088zM912.6912 322.4576l-172.3904-65.6384-165.4784 65.6384-18.5856 190.3616c0 0-22.8864 75.4688 86.9888 205.7728 71.424 75.9808 100.5568 101.376 100.5568 101.376l88.576-102.3488c0 0 100.6592-91.4432 92.0576-204.8S912.6912 322.4576 912.6912 322.4576zM760.6784 641.4848l-46.0288 0 0-102.4-92.0576 0 0-51.2 92.0576 0 0-102.4 46.0288 0 0 102.4 92.0576 0 0 51.2-92.0576 0L760.6784 641.4848zM188.0576 154.4192l0 51.2L142.0288 205.6192l0-51.2L188.0576 154.4192zM280.1152 154.4192l0 51.2L234.0864 205.6192l0-51.2L280.1152 154.4192zM372.1216 154.4192l0 51.2L326.0928 205.6192l0-51.2L372.1216 154.4192zM418.1504 154.4192l46.0288 0 0 51.2L418.1504 205.6192 418.1504 154.4192zM786.2784 103.2192l-39.6288 0-0.3072-0.1024-0.3072 0.1024L96 103.2192l0 153.6L446.464 256.8192l-4.7104 51.2L96 308.0192c-35.6864 0-46.0288-1.28-46.0288-51.2l0-153.6c0-34.0992 1.024-51.2 46.0288-51.2l690.2784 0c42.1376 0 46.0288 8.3456 46.0288 51.2l0 31.1808-46.0288-16.7424L786.2784 103.2192zM188.0576 461.6192l0 51.2L142.0288 512.8192l0-51.2L188.0576 461.6192zM280.1152 461.6192l0 51.2L234.0864 512.8192l0-51.2L280.1152 461.6192zM372.1216 461.6192l0 51.2L326.0928 512.8192l0-51.2L372.1216 461.6192zM96 359.2192l341.0432 0-4.7104 51.2L96 410.4192l0 153.6 322.4064 0c0.6144 14.08 2.8672 31.1808 7.7312 51.2L96 615.2192c-35.6864 0-46.0288-1.28-46.0288-51.2l0-153.6C50.0224 376.32 50.9952 359.2192 96 359.2192zM188.0576 768.8192l0 51.2L142.0288 820.0192l0-51.2L188.0576 768.8192zM280.1152 768.8192l0 51.2L234.0864 820.0192l0-51.2L280.1152 768.8192zM372.1216 768.8192l0 51.2L326.0928 820.0192l0-51.2L372.1216 768.8192zM464.1792 768.8192l0 51.2L418.1504 820.0192l0-51.2L464.1792 768.8192zM96 666.4192l346.9824 0c6.4512 15.9744 14.336 32.9216 24.3712 51.2L96 717.6192l0 153.6 486.912 0c19.3536 19.1488 36.7104 36.096 52.3776 51.2L96 922.4192c-35.6864 0-46.0288-1.1776-46.0288-51.2l0-149.6064C50.0224 687.5648 50.9952 666.4192 96 666.4192z" fill="#424242"></path></g></g></svg>