<?xml version="1.0" standalone="no"?><!DOCTYPE svg PUBLIC "-//W3C//DTD SVG 1.1//EN" "http://www.w3.org/Graphics/SVG/1.1/DTD/svg11.dtd"><svg width="200" height="200" viewBox="0 0 200 200" version="1.1" xmlns="http://www.w3.org/2000/svg" xmlns:xlink="http://www.w3.org/1999/xlink"><defs><style type="text/css"><![CDATA[
@font-face { font-family: ifont; src: url("http://at.alicdn.com/t/font_1442373896_4754455.eot?#iefix") format("embedded-opentype"), url("http://at.alicdn.com/t/font_1442373896_4754455.woff") format("woff"), url("http://at.alicdn.com/t/font_1442373896_4754455.ttf") format("truetype"), url("http://at.alicdn.com/t/font_1442373896_4754455.svg#ifont") format("svg"); }

]]></style></defs><g class="transform-group"><g transform="scale(0.1953125, 0.1953125)"><path d="M338.592648 6.274917 131.495096 6.274917c-68.619488 0-124.353179 55.665053-124.353179 124.284541l0 207.162577c0 68.6231 55.733691 124.284541 124.353179 124.284541l207.097552 0c68.691738 0 124.280929-55.665053 124.280929-124.284541l0.007225-207.162577C462.880802 61.93997 407.284386 6.274917 338.592648 6.274917zM391.616962 347.967092c0 25.056318-20.089127 45.495858-44.71917 45.495858L123.193565 393.462951c-24.630043 0-44.71917-20.443152-44.71917-45.495858L78.474395 120.318013c0-25.059931 20.013265-45.499471 44.71917-45.499471l223.704226 0c24.630043 0 44.71917 20.360065 44.71917 45.499471L391.616962 347.967092zM338.592648 561.032498 131.426459 561.032498c-68.55085 0-124.284541 55.665053-124.284541 124.280929l0 207.097552c0 68.55085 55.661441 124.277316 124.284541 124.277316l207.090327 0c68.7676 0 124.288154-55.733691 124.288154-124.277316l0-207.097552C462.880802 616.697552 407.284386 561.032498 338.592648 561.032498zM398.278417 905.473788c0 25.674056-20.941678 46.619347-46.622959 46.619347L118.367262 952.093135c-25.677669 0-46.630184-20.94529-46.630184-46.619347l0-233.208721c0-25.757144 20.87304-46.706047 46.630184-46.706047L351.568757 625.559021c25.681281 0 46.630184 20.948903 46.630184 46.706047L398.278417 905.473788 398.278417 905.473788zM896.102956 561.032498l-206.949439 0c-68.69535 0-124.356791 55.665053-124.356791 124.280929l0 207.097552c0 68.688125 55.661441 124.356791 124.356791 124.356791l206.949439 0c68.691738 0 124.277316-55.668666 124.277316-124.356791l0-207.097552C1020.380272 616.697552 964.791082 561.032498 896.102956 561.032498zM955.633387 905.322063c0 25.637931-20.840528 46.565159-46.474847 46.565159l-232.74632 0c-25.814944 0-46.644634-20.927228-46.644634-46.565159l0-232.901658c0-25.724631 20.836915-46.651859 46.644634-46.651859l232.74632 0c25.641544 0 46.474847 20.927228 46.474847 46.651859L955.633387 905.322063zM718.245001 431.607366c20.49734 20.41064 47.341847 30.61596 74.052692 30.61596 26.779482 0 53.501164-10.20532 73.976829-30.61596l123.276653-123.41754c40.89353-40.897142 40.89353-107.201016 0-148.025908l-123.197178-123.48979c-20.486503-20.41064-47.190122-30.619572-73.980442-30.619572-26.714457 0-53.562577 10.208932-74.045467 30.619572l-123.269428 123.41754c-40.83573 40.824892-40.83573 107.056516 0 148.025908L718.245001 431.607366zM636.551866 216.757384l138.503351-138.423876c6.018429-5.928117 12.676272-7.149143 17.3075-7.149143 4.627616 0 11.296296 1.221026 17.3075 7.149143l138.655077 138.506964c5.852254 5.928117 7.156368 12.672659 7.156368 17.300275 0 4.631228-1.304113 11.372158-7.315318 17.303888l-138.496126 138.499739c-6.011204 5.928117-12.679884 7.149143-17.3075 7.149143-4.631228 0-11.451633-1.221026-17.3075-7.149143l-138.503351-138.420264C627.050984 241.943752 627.050984 226.344966 636.551866 216.757384z" fill="#424242"></path></g></g></svg>